<svg width="20" height="20" viewBox="0 0 20 20" fill="none" xmlns="http://www.w3.org/2000/svg">
<g clip-path="url(#clip0_10_836)">
<path d="M19.5328 10.1871C19.5328 9.36767 19.4664 8.76973 19.3225 8.14966H9.96582V11.848H15.458C15.3473 12.7671 14.7493 14.1512 13.4206 15.0813L13.4019 15.2051L16.3603 17.4969L16.5653 17.5174C18.4477 15.7789 19.5328 13.221 19.5328 10.1871Z" fill="#4285F4"/>
<path d="M9.96566 19.9312C12.6563 19.9312 14.9152 19.0453 16.5651 17.5173L13.4204 15.0812C12.5789 15.668 11.4494 16.0777 9.96566 16.0777C7.33032 16.0777 5.0936 14.3393 4.29627 11.9365L4.1794 11.9464L1.10322 14.3271L1.06299 14.439C2.70177 17.6944 6.06795 19.9312 9.96566 19.9312Z" fill="#34C76F"/>
<path d="M4.29626 11.9366C4.08588 11.3165 3.96412 10.6521 3.96412 9.96559C3.96412 9.27902 4.08588 8.61467 4.28519 7.9946L4.27962 7.86253L1.16489 5.4436L1.06298 5.49208C0.387557 6.84299 0 8.36002 0 9.96559C0 11.5712 0.387557 13.0881 1.06298 14.439L4.29626 11.9366Z" fill="#FBBC05"/>
<path d="M9.96566 3.85336C11.837 3.85336 13.0992 4.66168 13.819 5.33718L16.6315 2.59107C14.9042 0.985496 12.6563 0 9.96566 0C6.06795 0 2.70177 2.23672 1.06299 5.49214L4.2852 7.99466C5.0936 5.59183 7.33032 3.85336 9.96566 3.85336Z" fill="#EB4335"/>
</g>
<defs>
<clipPath id="clip0_10_836">
<rect width="20" height="20" fill="white"/>
</clipPath>
</defs>
</svg>
